<?xml version="1.0" standalone="no"?>
<!DOCTYPE svg PUBLIC "-//W3C//DTD SVG 20010904//EN"
 "http://www.w3.org/TR/2001/REC-SVG-20010904/DTD/svg10.dtd">
<svg version="1.0" xmlns="http://www.w3.org/2000/svg"
 width="1568.000000pt" height="1568.000000pt" viewBox="0 0 1568.000000 1568.000000"
 preserveAspectRatio="xMidYMid meet">
<metadata>
Created by potrace 1.14, written by Peter Selinger 2001-2017
</metadata>
<g transform="translate(0.000000,1568.000000) scale(0.100000,-0.100000)"
fill="#000000" stroke="none">
<path d="M5817 10703 c-2 -2 -22 -4 -45 -5 -23 -1 -42 -4 -43 -7 -2 -20 -10
-46 -38 -131 -17 -52 -33 -99 -35 -105 -2 -5 -4 -13 -5 -17 -8 -34 -196 -549
-267 -730 -19 -49 -34 -91 -34 -94 0 -3 -6 -20 -14 -37 -7 -18 -32 -81 -54
-142 -23 -60 -47 -123 -53 -140 -7 -16 -13 -34 -15 -40 -1 -5 -35 -98 -74
-205 -40 -107 -92 -251 -117 -320 -24 -69 -69 -195 -100 -280 -30 -85 -75
-211 -100 -280 -24 -69 -51 -143 -59 -165 -8 -22 -17 -47 -19 -55 -8 -29 -126
-355 -137 -380 -6 -14 -12 -28 -14 -32 -1 -5 -3 -10 -4 -13 -1 -3 -3 -8 -4
-12 -2 -11 -25 -71 -46 -118 -10 -22 -23 -59 -30 -82 -7 -24 -17 -43 -22 -43
-5 0 -7 -4 -4 -8 3 -5 -1 -20 -9 -35 -13 -25 -66 -172 -190 -522 -105 -299
-264 -712 -317 -825 -12 -25 -23 -50 -24 -56 -4 -22 -146 -309 -156 -315 -5
-3 -9 -9 -9 -13 2 -11 -75 -109 -115 -147 -50 -47 -117 -88 -152 -93 -15 -3
-36 -6 -47 -9 -11 -2 -47 -8 -80 -11 -33 -4 -72 -9 -86 -11 -36 -6 -163 -14
-266 -16 -119 -2 -154 -18 -169 -79 -6 -25 -8 -49 -4 -53 16 -17 236 -23 460
-13 147 8 468 8 595 1 314 -16 1078 -26 1090 -14 2 3 6 21 9 40 3 25 -2 42
-18 61 -18 23 -31 28 -86 33 -133 11 -164 14 -219 20 -31 3 -83 7 -116 10
-103 7 -178 15 -225 22 -25 4 -49 8 -55 8 -5 1 -36 7 -68 15 -56 13 -76 26
-81 52 -2 7 -6 20 -10 29 -9 20 -10 77 -3 104 3 11 11 43 18 70 7 28 37 120
66 205 30 85 56 162 58 170 5 22 51 151 63 180 6 14 27 77 47 140 20 63 68
214 107 335 39 121 71 225 73 230 1 6 5 17 8 25 3 8 28 87 56 175 94 295 103
320 133 400 35 92 43 104 66 103 9 0 49 3 87 7 100 10 1510 12 1570 2 28 -5
61 -9 74 -10 18 -1 29 -12 47 -51 13 -28 24 -57 24 -64 0 -7 4 -20 9 -30 15
-28 35 -83 146 -392 59 -162 110 -304 115 -315 24 -58 128 -366 170 -505 12
-41 26 -84 31 -95 9 -22 36 -100 105 -305 44 -132 86 -295 78 -303 -3 -2 -6
-19 -9 -36 -10 -83 -55 -99 -325 -116 -47 -3 -114 -7 -150 -10 -36 -2 -104 -7
-152 -9 -108 -7 -176 -23 -188 -46 -5 -9 -11 -29 -14 -45 -3 -15 -8 -30 -11
-33 -10 -11 28 -42 59 -46 67 -10 278 -18 426 -16 323 4 552 5 555 2 4 -4 184
-8 678 -17 170 -2 313 -7 318 -11 5 -3 9 -1 9 5 0 6 11 6 29 1 16 -4 32 -6 35
-3 3 3 34 5 69 5 35 0 70 3 76 7 15 10 17 79 3 112 -9 23 -30 33 -150 72 -76
25 -150 48 -163 51 -71 15 -221 55 -268 73 -65 24 -108 74 -172 203 -40 82
-118 271 -124 302 -2 9 -8 25 -13 35 -5 10 -23 61 -41 113 -17 52 -36 103 -41
112 -6 10 -10 25 -10 33 0 8 -4 23 -10 33 -5 9 -23 60 -40 112 -17 52 -35 104
-40 115 -4 11 -25 70 -45 130 -39 120 -81 239 -96 270 -12 29 -80 216 -86 240
-2 11 -9 29 -14 40 -5 11 -25 65 -45 120 -20 55 -52 143 -71 195 -19 52 -36
100 -37 105 -1 6 -10 27 -19 49 -9 21 -17 41 -17 43 0 6 -77 217 -90 248 -5
11 -21 54 -35 95 -14 41 -32 88 -39 105 -7 16 -21 53 -30 80 -10 28 -29 79
-43 115 -13 36 -26 70 -27 75 -2 6 -7 19 -11 30 -4 11 -21 56 -37 100 -16 44
-35 94 -41 110 -7 17 -12 32 -13 35 0 3 -4 12 -7 20 -4 8 -36 96 -73 195 -141
385 -229 617 -245 650 -6 12 -11 27 -12 35 -2 8 -6 20 -10 26 -8 13 -157 411
-157 420 0 5 -55 157 -92 254 -38 98 -140 333 -171 395 -17 33 -32 66 -33 74
-2 7 -7 18 -12 23 -9 9 -188 19 -195 11z m-108 -911 c17 -38 31 -72 31 -76 0
-5 6 -22 14 -39 13 -28 91 -226 203 -512 19 -49 39 -99 43 -110 10 -22 51
-127 95 -240 15 -38 42 -113 61 -165 19 -52 38 -104 43 -115 6 -11 33 -83 61
-160 29 -77 62 -167 75 -200 65 -167 155 -436 155 -463 0 -7 -15 -12 -37 -13
-21 -1 -51 -3 -68 -5 -16 -1 -117 -5 -223 -7 -106 -3 -196 -7 -199 -11 -3 -3
-10 -3 -15 0 -6 4 -152 8 -326 9 -497 5 -736 15 -754 33 -4 4 -1 20 7 35 8 16
14 31 14 35 -1 4 0 10 1 15 1 4 3 10 4 15 21 80 48 162 92 280 13 34 21 62 17
62 -3 0 -1 6 5 13 7 9 132 363 156 442 2 6 6 19 10 30 5 11 12 34 18 50 6 17
19 49 29 72 11 24 19 47 19 53 0 6 48 131 106 278 130 327 122 306 120 312 0
3 6 17 15 30 8 14 28 57 43 95 15 39 34 84 41 100 7 17 27 64 45 105 46 107
53 120 60 120 4 0 21 -31 39 -68z"/>
<path d="M13948 10595 c-2 -1 -57 -5 -123 -9 -66 -3 -132 -8 -146 -11 -14 -3
-43 -6 -66 -8 -22 -2 -45 -7 -52 -11 -6 -4 -11 -5 -11 -3 0 3 -37 -4 -82 -14
-46 -11 -94 -22 -108 -25 -124 -26 -438 -175 -506 -239 -6 -5 -27 -21 -47 -35
-20 -14 -37 -28 -37 -32 0 -5 -7 -8 -16 -8 -8 0 -12 -4 -9 -10 3 -5 2 -10 -3
-10 -25 0 -201 -194 -266 -293 -45 -69 -116 -209 -116 -229 0 -8 -4 -18 -8
-23 -10 -12 -48 -142 -57 -198 -15 -89 -17 -118 -19 -226 -2 -102 2 -154 19
-271 24 -155 131 -388 237 -512 13 -15 34 -41 48 -59 64 -83 187 -206 305
-304 33 -27 62 -52 65 -55 13 -13 102 -70 109 -70 5 0 11 -4 13 -8 5 -11 183
-122 197 -122 6 0 11 -4 11 -8 0 -4 12 -13 28 -19 15 -7 34 -17 42 -22 37 -26
260 -148 465 -256 61 -32 139 -74 175 -93 87 -46 314 -175 320 -182 3 -3 22
-14 43 -25 20 -11 37 -23 37 -27 0 -5 4 -8 10 -8 5 0 29 -14 52 -30 24 -17 59
-41 78 -54 115 -77 288 -232 346 -311 16 -22 31 -42 34 -45 13 -12 58 -91 87
-150 97 -199 115 -422 50 -645 -18 -66 -88 -213 -126 -271 -17 -25 -31 -48
-31 -52 0 -7 -41 -54 -114 -132 -132 -142 -369 -268 -596 -315 -8 -2 -15 -4
-15 -5 0 -2 -36 -7 -127 -18 -77 -10 -254 -8 -343 3 -195 23 -415 111 -603
242 -82 57 -285 246 -354 329 -129 156 -270 443 -293 593 -2 14 -6 37 -9 51
-3 14 -8 51 -11 83 -10 110 -43 160 -102 155 -67 -7 -80 -50 -88 -298 -6 -166
-17 -341 -30 -470 -4 -36 -8 -78 -10 -95 -5 -62 -17 -172 -24 -226 -20 -151 8
-221 114 -288 44 -28 220 -107 260 -117 6 -1 35 -11 65 -22 80 -29 248 -78
305 -89 11 -2 38 -9 60 -15 22 -6 49 -12 60 -13 31 -4 97 -15 125 -21 14 -3
41 -7 60 -9 19 -3 55 -8 80 -11 48 -7 89 -10 242 -18 53 -3 100 -6 105 -7 4
-1 10 -1 13 0 3 1 79 4 170 6 91 3 179 7 195 9 17 2 59 7 95 10 36 4 72 9 80
11 8 3 31 7 50 9 69 9 196 38 250 57 30 11 62 22 71 24 54 12 296 129 319 154
3 3 32 24 65 46 69 47 255 227 308 300 20 28 40 55 45 60 30 38 186 318 181
327 -1 2 6 21 15 43 10 22 29 81 43 130 14 50 28 97 30 105 3 8 7 29 9 45 2
17 6 41 9 55 28 128 22 433 -11 570 -4 14 -8 34 -10 45 -7 48 -58 187 -98 270
-99 203 -231 361 -431 517 -126 98 -342 238 -530 343 -194 109 -236 131 -505
272 -58 31 -134 72 -170 91 -36 20 -78 42 -95 50 -62 31 -315 178 -430 250
-208 131 -322 223 -406 328 -129 162 -181 344 -155 544 17 134 78 275 166 384
34 43 138 144 175 172 22 16 42 31 45 34 3 3 28 20 55 37 301 187 760 220
1120 81 83 -32 235 -116 235 -130 0 -4 6 -8 14 -8 34 0 220 -197 288 -305 24
-39 92 -165 94 -175 0 -3 11 -27 23 -55 12 -27 36 -90 52 -140 53 -158 61
-188 61 -217 -1 -34 107 -24 109 10 1 10 3 31 4 47 8 66 28 482 28 595 1 41
-3 107 -7 145 -4 39 -9 94 -12 122 -2 29 -8 61 -13 72 -18 33 -290 195 -371
222 -14 4 -45 15 -70 24 -25 9 -56 19 -70 22 -13 2 -29 8 -36 14 -6 5 -13 7
-15 4 -3 -2 -29 2 -59 10 -29 8 -57 12 -62 9 -4 -3 -8 -2 -8 3 0 4 -10 8 -22
9 -13 0 -43 4 -68 8 -91 13 -118 15 -270 21 -85 3 -163 8 -172 9 -9 2 -18 3
-20 1z"/>
<path d="M43 10395 c11 -85 31 -102 147 -121 14 -2 41 -7 60 -10 19 -3 58 -8
85 -10 28 -2 73 -6 100 -9 28 -3 77 -7 110 -10 33 -3 76 -8 95 -11 19 -3 46
-7 60 -9 66 -9 142 -27 205 -50 38 -14 69 -26 70 -28 0 -1 6 -13 13 -27 23
-48 35 -85 37 -115 18 -242 22 -535 13 -908 -1 -81 -1 -147 2 -147 4 0 5 -895
1 -1075 0 -33 1 -103 4 -155 2 -52 7 -358 10 -680 2 -322 5 -587 5 -590 3 -13
-9 -534 -14 -615 -4 -58 -16 -194 -21 -245 -11 -95 -37 -183 -63 -210 -33 -34
-148 -78 -253 -95 -19 -3 -45 -8 -59 -10 -14 -3 -44 -7 -67 -10 -24 -3 -60 -7
-80 -10 -21 -2 -65 -6 -98 -9 -33 -3 -93 -8 -133 -11 -78 -7 -80 -7 -156 -24
-51 -12 -90 -34 -80 -44 4 -4 8 -26 9 -49 2 -24 3 -47 4 -53 1 -7 354 -11
1034 -12 567 0 1046 -2 1062 -3 50 -3 489 11 494 16 12 12 -3 109 -20 130 -23
27 -121 50 -259 59 -71 5 -176 18 -230 30 -137 30 -132 29 -147 38 -7 5 -13 6
-13 2 0 -8 -80 34 -119 63 -44 32 -97 158 -99 232 0 8 -4 53 -8 100 -3 47 -6
256 -4 465 3 688 2 1572 -4 2105 -6 600 -6 1084 -1 1215 11 274 16 393 20 420
16 132 34 186 76 227 36 35 168 73 324 93 28 3 61 8 75 10 14 2 48 6 75 10 28
3 64 8 80 11 17 2 48 6 70 9 57 8 85 13 125 20 19 4 40 8 47 9 22 4 27 15 30
74 l4 58 -58 -2 c-412 -18 -1279 -23 -1733 -9 -146 4 -392 8 -548 9 l-284 2 5
-41z"/>
<path d="M8961 10401 c4 -19 7 -37 7 -40 -1 -3 4 -18 12 -33 11 -23 25 -31 75
-44 43 -11 189 -30 295 -39 108 -10 165 -16 275 -30 64 -9 206 -49 239 -68 47
-27 74 -88 82 -186 8 -110 15 -215 15 -231 -1 -8 0 -28 0 -45 2 -64 1 -379 -1
-555 -1 -102 -1 -399 0 -660 2 -412 2 -582 -1 -665 0 -26 -1 -13 7 -215 10
-235 10 -1554 1 -1705 -18 -305 -36 -426 -73 -496 -29 -57 -190 -111 -399
-134 -22 -2 -60 -7 -85 -10 -62 -8 -111 -12 -206 -19 -87 -7 -104 -9 -176 -27
-55 -13 -71 -29 -69 -67 1 -15 2 -39 3 -54 l0 -28 102 -1 c150 -1 1124 -2
1401 -1 132 1 299 -1 370 -4 133 -4 190 -4 400 1 66 1 166 3 223 4 l104 1 -6
67 c-3 36 -7 67 -9 68 -9 6 -76 34 -92 39 -30 9 -91 16 -180 21 -84 5 -106 8
-195 24 -100 18 -113 22 -195 49 -63 21 -89 36 -126 72 -40 40 -69 99 -71 145
0 6 -4 18 -9 27 -20 38 -23 267 -19 1388 1 278 -1 849 -5 1270 -10 1131 -11
1061 10 1550 12 289 41 368 150 409 30 11 66 23 80 25 14 3 51 10 83 15 31 6
71 13 87 16 17 3 51 7 76 10 26 2 60 6 75 9 16 3 54 8 84 11 30 4 66 9 80 11
14 2 36 6 50 7 71 10 118 20 129 26 12 8 23 95 14 116 -2 8 -24 11 -61 9 -362
-18 -1203 -23 -1697 -10 -170 5 -434 9 -586 10 l-276 2 8 -35z"/>
</g>
</svg>
